<svg width="52" height="53" viewBox="0 0 52 53" fill="none" xmlns="http://www.w3.org/2000/svg">
<path d="M26.1455 0C27.9163 0 29.6458 0.176552 31.3177 0.512482C32.4033 0.730605 32.5148 2.22409 31.593 2.83759C27.0161 5.88384 24 11.0897 24 17C24 26.3888 31.6112 34 41 34C44.0606 34 46.9318 33.1905 49.4122 31.7746C50.3735 31.2258 51.6562 31.996 51.364 33.0636C48.3312 44.1461 38.1903 52.291 26.1455 52.291C11.7057 52.291 0 40.5853 0 26.1455C1.54632e-05 11.7058 11.7057 1.75238e-05 26.1455 0Z" fill="#FFDE71"/>
</svg>
